<?xml version="1.0" encoding="UTF-8" standalone="no"?>
<!-- Created with Inkscape (http://www.inkscape.org/) -->

<svg
   width="210mm"
   height="297mm"
   viewBox="0 0 210 297"
   version="1.1"
   id="svg512"
   inkscape:version="1.1 (c68e22c387, 2021-05-23)"
   sodipodi:docname="3 (2).svg"
   xmlns:inkscape="http://www.inkscape.org/namespaces/inkscape"
   xmlns:sodipodi="http://sodipodi.sourceforge.net/DTD/sodipodi-0.dtd"
   xmlns="http://www.w3.org/2000/svg"
   xmlns:svg="http://www.w3.org/2000/svg">
  <sodipodi:namedview
     id="namedview514"
     pagecolor="#ffffff"
     bordercolor="#666666"
     borderopacity="1.0"
     inkscape:pageshadow="2"
     inkscape:pageopacity="0.0"
     inkscape:pagecheckerboard="0"
     inkscape:document-units="mm"
     showgrid="false"
     inkscape:zoom="0.74118967"
     inkscape:cx="397.33419"
     inkscape:cy="561.93443"
     inkscape:window-width="1920"
     inkscape:window-height="1017"
     inkscape:window-x="-8"
     inkscape:window-y="-8"
     inkscape:window-maximized="1"
     inkscape:current-layer="layer1" />
  <defs
     id="defs509" />
  <g
     inkscape:label="Layer 1"
     inkscape:groupmode="layer"
     id="layer1">
    <path
       style="fill:#b9b9b9;fill-opacity:1;stroke-width:0.0846667"
       d="m 79.771282,175.79796 -1.29082,-1.29082 v 1.24848 1.24849 h -0.211666 -0.211667 l 0.0019,-1.79917 0.0019,-1.79916 1.306415,1.35466 1.306412,1.35467 0.0041,-1.29117 0.0041,-1.29116 h 0.211666 0.211667 v 1.778 c 0,0.9779 -0.0097,1.778 -0.02151,1.778 -0.01183,0 -0.602382,-0.58088 -1.312333,-1.29082 z m 21.414588,0.0201 c -0.66711,-0.69811 -1.252375,-1.26928 -1.300585,-1.26928 -0.05786,0 -0.07686,0.41733 -0.05591,1.22766 l 0.03175,1.22767 h -0.233998 -0.233994 l 0.0016,-1.79917 0.0016,-1.79916 1.310857,1.32261 1.31087,1.32261 v -1.25911 -1.25911 h 0.21166 0.21167 v 1.778 c 0,0.9779 -0.01,1.77767 -0.0212,1.77728 -0.0116,0 -0.56698,-0.57189 -1.23409,-1.27 z m 4.34559,1.1947 c -0.83965,-0.21483 -1.25335,-0.74192 -1.29662,-1.65202 -0.0241,-0.50589 0.003,-0.66022 0.17495,-0.9813 0.39681,-0.74298 1.32347,-1.06772 2.20117,-0.7714 0.34613,0.11686 0.37062,0.15999 0.21167,0.37259 -0.0989,0.13224 -0.1319,0.1321 -0.50176,-0.002 -0.38009,-0.13788 -0.41218,-0.13689 -0.80231,0.0248 -0.92581,0.3837 -1.16711,1.54434 -0.46668,2.24476 0.38695,0.38695 0.83341,0.4842 1.37166,0.29876 0.37413,-0.1289 0.50004,-0.0868 0.50363,0.16848 0.003,0.21997 -0.92522,0.41778 -1.39571,0.29741 z m 10.07534,0 c -0.86227,-0.22061 -1.32927,-0.81668 -1.32927,-1.69661 0,-0.49593 0.17163,-1.02522 0.42232,-1.30245 0.40851,-0.45174 1.30287,-0.63652 1.97756,-0.40858 0.24499,0.0828 0.29962,0.13869 0.26495,0.27127 -0.0632,0.24169 -0.12063,0.25403 -0.52841,0.11354 -1.36611,-0.47067 -2.32617,1.40861 -1.20261,2.35402 0.34751,0.29241 0.81408,0.36603 1.28701,0.20309 0.20451,-0.0705 0.37811,-0.12027 0.38578,-0.11068 0.008,0.01 0.0383,0.0968 0.068,0.19377 0.0408,0.13304 0.004,0.19895 -0.14778,0.26832 -0.28921,0.13178 -0.90106,0.19017 -1.19758,0.11431 z m 4.30446,-0.005 c -0.76582,-0.18247 -1.28727,-0.78924 -1.35612,-1.578 -0.0381,-0.43597 -0.0123,-0.55932 0.20109,-0.96429 0.33492,-0.6355 0.85432,-0.96114 1.53152,-0.96015 1.0613,0.002 1.79605,0.74043 1.79605,1.80617 0,0.78181 -0.55652,1.49353 -1.31771,1.68521 -0.40568,0.10215 -0.46912,0.10297 -0.85483,0.0111 z m 0.99008,-0.53275 c 1.15416,-0.58255 0.91504,-2.25084 -0.36589,-2.5527 -0.86135,-0.20299 -1.74816,0.80433 -1.50456,1.709 0.14476,0.53757 0.74265,1.00255 1.32046,1.02691 0.0949,0.004 0.3424,-0.0784 0.54999,-0.18321 z m -45.214878,-1.20649 v -1.73566 h 0.211667 0.211667 v 1.73566 1.73567 h -0.211667 -0.211667 z m 7.366,-0.008 v -1.7441 l 0.75529,0.0296 c 0.655648,0.0257 0.783522,0.0561 0.969275,0.23072 0.117692,0.11062 0.237172,0.3067 0.265512,0.43573 0.06129,0.27904 -0.145447,0.82455 -0.340918,0.89956 -0.110046,0.0422 -0.07926,0.0995 0.158948,0.2959 0.360889,0.29747 0.447376,0.62585 0.274074,1.04062 -0.172728,0.41339 -0.532453,0.55606 -1.402128,0.55606 h -0.680053 z m 1.538499,1.18063 c 0.156427,-0.14156 0.20456,-0.50119 0.09004,-0.6727 -0.118179,-0.17699 -0.433454,-0.28784 -0.818637,-0.28784 h -0.386567 v 0.55033 0.55033 h 0.480166 c 0.327986,0 0.529241,-0.0444 0.635,-0.14012 z m -0.169333,-1.524 c 0.192924,-0.17459 0.200697,-0.6002 0.01471,-0.80571 -0.09902,-0.10942 -0.260453,-0.15483 -0.550334,-0.15483 h -0.41021 v 0.55033 0.55033 h 0.3955 c 0.249203,0 0.452773,-0.0518 0.550333,-0.14012 z m 2.168395,1.93449 c 0.414182,-1.04256 1.425636,-3.40158 1.458733,-3.4022 0.03582,-8e-4 0.415843,0.88267 1.411078,3.28 0.113507,0.27341 0.11267,0.27517 -0.131069,0.27517 -0.217982,0 -0.266353,-0.0519 -0.434303,-0.46567 l -0.189,-0.46567 h -0.672158 -0.672161 l -0.205938,0.46567 c -0.169794,0.38393 -0.2428,0.46567 -0.415946,0.46567 -0.1685,0 -0.197996,-0.0302 -0.149236,-0.15297 z m 1.951662,-1.18159 c -0.01553,-0.0355 -0.123132,-0.32126 -0.239133,-0.635 -0.115998,-0.31374 -0.233807,-0.57044 -0.261789,-0.57044 -0.04993,0 -0.500968,1.08814 -0.500968,1.2086 0,0.0338 0.231775,0.0614 0.515057,0.0614 0.283279,0 0.502354,-0.0291 0.486833,-0.0646 z m 2.638777,-0.40107 v -1.73566 h 0.211667 0.211666 v 1.524 1.524 h 0.889 0.889 v 0.21166 0.21167 h -1.100666 -1.100667 z m 3.640667,1.67402 c 0,-0.0339 0.331552,-0.85197 0.736782,-1.81794 l 0.736783,-1.75631 0.116509,0.27279 c 0.463804,1.08588 1.373259,3.28448 1.373259,3.31983 0,0.0238 -0.10504,0.0433 -0.233418,0.0433 -0.203335,0 -0.255553,-0.0573 -0.405143,-0.4445 l -0.17172,-0.4445 h -0.707303 -0.7073 l -0.168897,0.4445 c -0.138078,0.36339 -0.205451,0.4445 -0.369223,0.4445 -0.11018,0 -0.200329,-0.0277 -0.200329,-0.0616 z m 1.947333,-1.27842 c 0,-0.075 -0.419888,-1.13628 -0.470543,-1.18929 -0.03111,-0.0325 -0.399608,0.76388 -0.500465,1.08164 -0.05306,0.16719 -0.02595,0.17772 0.457304,0.17772 0.282538,0 0.513704,-0.0315 0.513704,-0.0701 z m 11.937998,-0.3956 v -1.73566 h 1.143 1.143 v 0.21166 0.21167 h -0.93133 -0.93133 v 0.55033 0.55034 h 0.80433 c 0.80151,0 0.80433,7.9e-4 0.80433,0.21166 0,0.21092 -0.003,0.21167 -0.80433,0.21167 h -0.80433 v 0.55033 0.55034 h 0.93133 0.93133 v 0.21166 0.21167 h -1.143 -1.143 z m 3.75553,1.60759 c -0.0641,-0.16715 0.1175,-0.38291 0.27233,-0.3235 0.0664,0.0255 0.12081,0.13753 0.12081,0.24897 0,0.14721 -0.047,0.20261 -0.17199,0.20261 -0.0946,0 -0.19411,-0.0576 -0.22115,-0.12808 z m 11.3998,-1.62452 c 0,-0.96546 0.0323,-1.71648 0.0718,-1.67217 0.0395,0.0442 0.40873,0.56621 0.82056,1.15994 0.41183,0.59372 0.77364,1.0795 0.80402,1.0795 0.0304,0 0.30593,-0.35243 0.61235,-0.78317 0.30641,-0.43074 0.69335,-0.97355 0.85987,-1.20623 l 0.30275,-0.42306 v 1.79889 1.7989 h -0.21167 -0.21167 v -1.10067 c 0,-0.60536 -0.0286,-1.0995 -0.0635,-1.09807 -0.0349,10e-4 -0.32589,0.38243 -0.64659,0.84667 -0.32071,0.46424 -0.60889,0.84407 -0.64041,0.84407 -0.0315,0 -0.32156,-0.36685 -0.64455,-0.81522 l -0.58728,-0.81523 -0.0237,1.06923 -0.0237,1.06922 h -0.20912 -0.20914 z m -33.691407,-5.12657 c -0.393178,-1.00465 -1.953254,-5.09342 -1.953254,-5.11924 0,-0.0184 0.177548,-0.0219 0.394552,-0.008 l 0.394552,0.0258 0.642614,1.84041 c 0.353439,1.01223 0.665642,1.8409 0.693788,1.8415 0.02814,8e-4 0.252304,-0.51565 0.498129,-1.14722 l 0.446957,-1.1483 -0.219813,-0.5662 c -0.120896,-0.31141 -0.244356,-0.63287 -0.274354,-0.71436 -0.046,-0.12495 -0.0034,-0.14812 0.272015,-0.1479 h 0.32656 l 0.710763,1.82007 c 0.612855,1.56934 0.85557,2.06372 0.85557,1.74268 0,-0.0426 0.271058,-0.8617 0.602353,-1.82033 l 0.602353,-1.74296 h 0.32898 c 0.180938,0 0.328981,0.034 0.328981,0.0756 0,0.0839 -1.842765,4.98073 -1.941322,5.15877 -0.03776,0.0682 -0.288057,-0.47003 -0.6398,-1.37583 -0.317772,-0.81834 -0.600445,-1.48732 -0.628158,-1.48664 -0.02771,8e-4 -0.332502,0.66744 -0.677307,1.48167 -0.344807,0.81423 -0.641024,1.48042 -0.658262,1.48042 -0.01725,0 -0.06489,-0.0857 -0.105897,-0.1905 z m 32.014827,-1.7145 c -1.02516,-1.04775 -1.88647,-1.905 -1.91401,-1.905 -0.0275,0 -0.0501,0.81915 -0.0501,1.82034 v 1.82033 h -0.33867 -0.33866 l 0.002,-2.68817 0.002,-2.68816 1.94132,1.98966 1.94132,1.98967 0.004,-1.88383 0.004,-1.88384 h 0.33867 0.33867 v 2.667 c 0,1.46685 -0.015,2.667 -0.0333,2.667 -0.0183,0 -0.87209,-0.85725 -1.89726,-1.905 z m -55.304081,1.69462 c -0.619255,-0.20302 -1.187677,-0.69607 -1.501592,-1.30246 -0.237424,-0.45865 -0.276408,-0.62034 -0.276408,-1.14647 0,-0.8162 0.182618,-1.31294 0.684615,-1.8622 0.554064,-0.60624 1.096444,-0.84343 1.940541,-0.84866 0.527368,-0.003 0.716944,0.0359 1.114258,0.2303 0.530781,0.25969 0.982679,0.71049 1.265637,1.26255 0.256953,0.50134 0.313145,1.42497 0.121748,2.00121 -0.181975,0.54787 -0.784725,1.22549 -1.340691,1.50722 -0.533019,0.2701 -1.447543,0.34229 -2.008108,0.15851 z m 1.687608,-0.71803 c 0.412014,-0.21019 0.912336,-0.78943 1.02159,-1.18272 0.28543,-1.02748 -0.219466,-2.12135 -1.161311,-2.51603 -0.149847,-0.0628 -0.465395,-0.11417 -0.70122,-0.11417 -1.112809,0 -1.943616,0.85049 -1.943616,1.98967 0,0.80311 0.407704,1.46494 1.139282,1.8494 0.371002,0.19497 1.238883,0.18117 1.645275,-0.0262 z m 6.778511,0.76971 c -0.649867,-0.21322 -1.061786,-0.60211 -1.25776,-1.18743 -0.06032,-0.18015 -0.09636,-0.97985 -0.09636,-2.13783 v -1.85004 h 0.338667 0.338666 l 2.65e-4,1.8415 c 2.54e-4,1.68818 0.01431,1.86448 0.168561,2.11744 0.494024,0.81027 1.78526,0.81911 2.216414,0.0152 0.136261,-0.25407 0.154707,-0.50823 0.154707,-2.13129 v -1.84281 h 0.344207 0.344205 l -0.0267,2.02495 -0.02671,2.02495 -0.257757,0.36688 c -0.347964,0.49528 -0.848971,0.76082 -1.506302,0.79835 -0.287067,0.0164 -0.617437,-0.002 -0.734155,-0.0398 z m 60.494882,-0.04 c -0.3917,-0.12899 -0.889,-0.37739 -0.889,-0.44406 0,-0.0451 0.1672,-0.38633 0.21872,-0.44645 0.0145,-0.017 0.19676,0.0516 0.40493,0.15236 1.02534,0.49636 2.00101,0.2176 2.00101,-0.57171 0,-0.48106 -0.2366,-0.72316 -1.01959,-1.0433 -0.85466,-0.34944 -1.23471,-0.65671 -1.35227,-1.09329 -0.0998,-0.37062 -0.0134,-0.83387 0.21636,-1.16084 0.37148,-0.52851 1.45956,-0.691 2.36318,-0.35291 l 0.46803,0.17511 -0.13191,0.25508 c -0.0949,0.1836 -0.17183,0.2396 -0.27435,0.19984 -1.12451,-0.43611 -1.96278,-0.23828 -1.96278,0.46322 0,0.40442 0.21327,0.60195 1.00033,0.9265 1.10747,0.45669 1.38244,0.77256 1.38244,1.58815 0,0.8706 -0.57006,1.39038 -1.57844,1.43921 -0.2794,0.0135 -0.6604,-0.0256 -0.84666,-0.0869 z m 6.59327,-0.0349 c -0.23873,-0.0811 -0.52037,-0.20647 -0.62586,-0.27867 -0.17104,-0.11705 -0.18009,-0.15371 -0.0836,-0.33866 0.0595,-0.11407 0.12007,-0.2213 0.13462,-0.23827 0.0145,-0.017 0.19676,0.0516 0.40493,0.15236 1.02534,0.49636 2.00101,0.2176 2.00101,-0.57171 0,-0.48106 -0.2366,-0.72316 -1.01959,-1.0433 -0.85466,-0.34944 -1.23472,-0.65671 -1.35228,-1.09329 -0.0998,-0.37062 -0.0135,-0.83387 0.21637,-1.16084 0.37147,-0.52851 1.45956,-0.691 2.36318,-0.35291 l 0.46803,0.17511 -0.13191,0.25508 c -0.095,0.1836 -0.17183,0.2396 -0.27435,0.19984 -1.12451,-0.43611 -1.96278,-0.23828 -1.96278,0.46322 0,0.40442 0.21327,0.60195 1.00033,0.9265 1.15345,0.47565 1.41032,0.78897 1.3553,1.65314 -0.0393,0.61685 -0.25193,0.96797 -0.72413,1.1957 -0.44272,0.21351 -1.23297,0.23884 -1.76923,0.0567 z m -82.750938,-0.82394 v -0.88822 l -0.791638,-1.41895 c -0.435398,-0.78044 -0.855477,-1.54279 -0.933506,-1.69413 l -0.141872,-0.27517 h 0.404895 0.404891 l 0.711462,1.32436 c 0.652002,1.21366 0.721302,1.31096 0.829189,1.16416 0.06475,-0.0881 0.392043,-0.68403 0.727318,-1.32429 l 0.609595,-1.16411 0.403886,-6e-5 0.403889,-6e-5 -0.164417,0.3175 c -0.09043,0.17463 -0.529355,0.96492 -0.975389,1.75622 l -0.810969,1.43871 v 0.82612 0.82612 h -0.338667 -0.338667 z m 22.182667,-1.69413 v -2.58234 l 0.867833,8e-4 c 1.001959,7.9e-4 1.394325,0.0885 1.757246,0.39386 0.377034,0.31726 0.507587,0.62937 0.507587,1.2135 0,0.5875 -0.21409,1.10063 -0.551423,1.32166 -0.115816,0.0759 -0.210577,0.17009 -0.210577,0.20935 0,0.0393 0.2667,0.49367 0.592667,1.00982 0.325967,0.51614 0.592667,0.9559 0.592667,0.97722 0,0.0213 -0.166402,0.0388 -0.369782,0.0388 h -0.369782 l -0.600053,-0.93133 -0.600052,-0.93134 h -0.511833 -0.511831 v 0.93134 0.93133 h -0.296334 -0.296333 v -2.58233 z m 1.946399,-0.0842 c 0.341667,-0.17668 0.508934,-0.44876 0.508934,-0.82786 0,-0.71994 -0.384257,-1.03529 -1.26152,-1.03529 h -0.558813 l -0.02429,0.88328 c -0.01336,0.4858 -0.005,0.93347 0.01852,0.99483 0.06033,0.15723 1.004972,0.14649 1.317188,-0.015 z m 14.648267,0.0842 v -2.58234 h 1.651005 1.651 v 0.29418 0.29419 l -1.3335,0.0233 -1.333505,0.0233 v 0.80433 0.80433 l 1.206505,0.0235 1.2065,0.0235 v 0.29169 0.29168 l -1.2065,0.0235 -1.206505,0.0235 v 0.80434 0.80433 l 1.418165,0.0232 1.41817,0.0232 v 0.29429 0.29428 h -1.73567 -1.735665 z m 7.196665,0 v -2.58234 h 0.29495 0.29495 l 0.0225,2.26484 0.0226,2.26483 1.3335,0.0233 1.3335,0.0233 v 0.29418 0.29418 h -1.65099 -1.651 z m 6.94267,0 v -2.58234 h 0.33867 0.33866 v 2.286 2.286 h 1.31234 1.31233 v 0.29634 0.29633 h -1.651 -1.651 z m 15.494,0 v -2.58234 h 1.69333 1.69333 v 0.29418 0.29419 l -1.3335,0.0233 -1.3335,0.0233 -0.0242,0.8255 -0.0242,0.8255 h 1.23074 1.23073 v 0.29633 0.29633 h -1.22766 -1.22767 v 0.84667 0.84667 h 1.397 1.397 v 0.29633 0.29633 h -1.73567 -1.73566 z m -44.704001,-8.97764 c 2.040178,-0.53465 5.904222,-1.2025 8.763,-1.51456 1.572016,-0.17161 4.339828,-0.38596 5.08,-0.39341 0.907542,-0.009 1.028766,-0.11149 0.28744,-0.24271 -1.037365,-0.18362 -2.856785,-0.65258 -3.801107,-0.97975 -2.664994,-0.92331 -4.270224,-2.06351 -4.999281,-3.55099 -1.27332,-2.59794 -0.01228,-5.20971 3.254608,-6.74062 1.264864,-0.59274 3.177341,-1.13497 4.919673,-1.39484 0.482891,-0.072 0.559162,-0.0395 -0.889,-0.37868 -1.075402,-0.25185 -2.269297,-0.66406 -3.06555,-1.05843 -1.689827,-0.83695 -2.540521,-2.04638 -2.414778,-3.43311 0.197586,-2.17901 2.855098,-3.69289 7.504861,-4.27521 l 0.458201,-0.0574 -0.923867,-0.23293 c -2.248204,-0.56685 -3.403013,-1.31882 -3.724709,-2.42542 -0.509299,-1.75192 1.237311,-3.0994 4.72576,-3.64584 1.318231,-0.20649 4.66248,-0.20487 6.15785,0.003 2.18008,0.30303 3.06043,0.58767 3.61806,1.1698 0.68511,0.7152 0.87342,1.9681 0.43062,2.86506 -0.462,0.93586 -1.43407,1.819 -2.38289,2.16489 -0.6023,0.21956 -0.68022,0.18643 1.08878,0.46291 2.63602,0.41198 3.74907,0.98132 4.35989,2.23015 0.65426,1.33764 0.5402,2.66009 -0.34334,3.98111 -0.79027,1.18155 -1.97314,2.08953 -3.26217,2.50406 l -0.70753,0.22752 0.86557,0.15026 c 3.23336,0.56127 4.67298,1.31709 5.49386,2.88435 0.45807,0.87455 0.60853,1.52668 0.61528,2.66675 0.005,0.79237 -0.0309,1.0919 -0.19132,1.60866 -0.38965,1.25545 -1.17245,2.43044 -2.39309,3.59204 -0.60703,0.57766 -0.92367,0.80444 -1.54218,1.10451 -0.7285,0.35342 -2.27891,0.80642 -2.76092,0.80668 -0.11253,6e-5 -0.18346,0.0212 -0.1576,0.0471 0.0258,0.0258 0.84183,0.1207 1.81328,0.21078 2.02422,0.18768 4.88975,0.57972 6.76498,0.92554 1.87481,0.34572 4.18322,0.88663 3.91558,0.9175 -0.12633,0.0145 -1.82178,-0.0699 -3.76767,-0.18773 -6.53614,-0.39574 -7.76028,-0.43143 -14.79862,-0.43143 -6.840352,0 -8.211703,0.0375 -14.012338,0.3834 -1.513417,0.0902 -3.208867,0.18291 -3.767667,0.20591 l -1.015999,0.0418 0.804333,-0.21078 z m 22.796471,-2.62085 c 1.20684,-0.14117 2.3793,-0.37902 3.18146,-0.6454 1.71395,-0.56918 3.67918,-2.79518 4.12059,-4.66741 0.35812,-1.51889 -0.0955,-3.25535 -1.09808,-4.20356 -0.62556,-0.59162 -1.29333,-0.88592 -2.80204,-1.23491 -2.48481,-0.57478 -4.88628,-0.83035 -7.82573,-0.83282 -4.13286,-0.003 -7.241423,0.55745 -9.602059,1.73262 -1.586323,0.78971 -2.484618,1.69031 -2.84606,2.85338 -0.492627,1.58521 0.20556,3.18487 1.874248,4.29421 1.862894,1.23845 5.443532,2.27474 9.321061,2.69765 1.45142,0.1583 4.34948,0.16148 5.67661,0.006 z m -11.13096,-1.95266 c -1.104411,-0.26775 -2.109936,-1.0064 -2.517471,-1.84931 -0.733205,-1.51653 0.164941,-3.59372 2.045819,-4.73148 0.930481,-0.56286 2.440421,-0.92328 3.27633,-0.78205 l 0.348403,0.0589 -0.684765,0.33115 c -2.071669,1.00183 -3.569446,2.53002 -3.766307,3.84278 -0.144256,0.96197 0.594636,1.89508 2.264217,2.85936 l 0.696315,0.40217 -0.589193,-0.007 c -0.324056,-0.004 -0.807061,-0.0599 -1.073348,-0.12442 z m 10.49932,-10.79535 c 2.37719,-0.25876 3.29356,-0.62921 4.47047,-1.80718 1.17993,-1.18098 1.52229,-2.1375 1.18292,-3.30488 -0.4575,-1.57377 -1.46258,-2.01705 -5.80489,-2.56019 -1.62848,-0.2037 -5.793188,-0.20323 -7.323665,7.9e-4 -2.843982,0.37917 -4.781102,1.04872 -5.843598,2.01978 -1.377434,1.2589 -0.946629,2.86052 1.05191,3.91072 1.472408,0.77373 4.582652,1.50824 7.501023,1.77142 0.7998,0.0721 4.01192,0.0516 4.76583,-0.0305 z m 1.20317,-1.96798 c 0,-0.0275 0.26322,-0.18828 0.58493,-0.35733 0.76489,-0.40194 1.22825,-0.80696 1.53496,-1.34174 0.45828,-0.79902 0.26652,-1.35491 -0.68708,-1.99169 l -0.52077,-0.34776 0.36947,7.9e-4 c 0.35086,7.9e-4 1.03632,0.26674 1.3536,0.5252 0.46653,0.38003 0.64044,1.2541 0.37563,1.8879 -0.19893,0.47609 -0.84393,1.09644 -1.39901,1.34555 -0.45605,0.20466 -1.61173,0.40475 -1.61173,0.27905 z m -1.47164,-7.15869 c 0.42461,-0.0902 0.9415,-0.23902 1.14864,-0.33065 0.52658,-0.23293 1.4525,-1.12422 1.71488,-1.65072 0.4341,-0.87114 0.18506,-1.98281 -0.55372,-2.47171 -1.22255,-0.80905 -6.38728,-1.18935 -9.292258,-0.68423 -3.007889,0.52301 -4.494831,1.77895 -3.703931,3.12851 0.403805,0.68904 1.41864,1.21158 3.210722,1.6532 0.935656,0.23057 2.277737,0.45383 3.274637,0.54474 0.93439,0.0852 3.44103,-0.0276 4.20103,-0.18914 z m -8.138028,-1.579 c -0.935649,-0.33081 -1.097402,-1.36866 -0.325059,-2.08567 0.351734,-0.32653 0.742344,-0.49977 1.239776,-0.54985 l 0.43995,-0.0443 -0.465032,0.26431 c -0.787868,0.44781 -1.185968,0.92411 -1.185968,1.41895 0,0.3215 0.197829,0.58381 0.662564,0.87854 0.329247,0.2088 0.355872,0.24462 0.179512,0.24145 -0.113893,-0.002 -0.359476,-0.0576 -0.545743,-0.12345 z m -10.462741,22.839 -0.205259,-0.23283 0.232833,0.20525 c 0.128059,0.1129 0.232834,0.21767 0.232834,0.23284 0,0.0664 -0.06856,0.0123 -0.260408,-0.20526 z m 29.258739,0.0635 c 0.0843,-0.0931 0.1723,-0.16933 0.19558,-0.16933 0.0233,0 -0.0266,0.0762 -0.11091,0.16933 -0.0843,0.0931 -0.1723,0.16933 -0.19558,0.16933 -0.0233,0 0.0266,-0.0762 0.11091,-0.16933 z m -29.972088,-0.91017 c -1.937472,-2.31365 -3.496503,-5.74481 -4.02976,-8.86883 -0.221202,-1.2959 -0.311478,-4.13026 -0.169979,-5.33685 0.52827,-4.50466 2.416387,-8.51327 5.460053,-11.59209 3.125652,-3.16175 6.867072,-5.08632 11.231128,-5.77723 1.3603,-0.21536 4.471556,-0.21605 5.827116,-10e-4 5.96112,0.94439 11.04224,4.36398 14.10104,9.49001 1.33916,2.24419 2.26843,5.06193 2.59899,7.88061 0.14132,1.20505 0.0512,4.0387 -0.1701,5.34671 -0.51395,3.03825 -1.98562,6.32172 -3.8941,8.68814 -0.29039,0.36007 -0.57243,0.68214 -0.62675,0.71572 -0.0543,0.0336 0.0373,-0.10862 0.20353,-0.31601 1.75003,-2.18274 3.27256,-5.61968 3.74892,-8.46272 1.06603,-6.36242 -0.86588,-12.52578 -5.32149,-16.97711 -3.69698,-3.69339 -8.34879,-5.62886 -13.52882,-5.62886 -5.207762,0 -9.842897,1.91356 -13.531048,5.58614 -2.914611,2.9023 -4.739844,6.47762 -5.46866,10.71219 -0.205375,1.19327 -0.20465,4.2708 0.0013,5.66369 0.351425,2.37638 1.186997,4.80612 2.356898,6.85356 0.460166,0.80533 1.313317,2.07452 1.616823,2.40525 0.09615,0.10478 0.152011,0.1905 0.124137,0.1905 -0.02787,0 -0.266041,-0.25717 -0.529259,-0.5715 z"
       id="path232" />
  </g>
</svg>
